<svg xmlns="http://www.w3.org/2000/svg" viewBox="0 0 32 32" fill="none" stroke="currentColor" stroke-width="2" stroke-linecap="round" stroke-linejoin="round" class="lucide lucide-stethoscope">
  <path d="M4.8 2.3A.3.3 0 0 0 5 2h3a2 2 0 0 1 2 2v2a2 2 0 0 1-2 2H5a2 2 0 0 1-2-2V3a.3.3 0 0 0-.2-.3l-.324-.054A.3.3 0 0 1 2 2.3h0a.3.3 0 0 1 .476-.246l2.324 1.246Z" fill="#3b82f6" stroke="none"/>
  <path d="M11 2v2" />
  <path d="M5 2v2" />
  <path d="M5 3H4a2 2 0 0 0-2 2v4a6 6 0 0 0 12 0V5a2 2 0 0 0-2-2h-1" />
  <path d="M8 15a6 6 0 0 0 12 0v-3" />
  <circle cx="20" cy="10" r="2" />
  <path d="M20 2v5" stroke="#22c55e" />
  <rect x="0" y="0" width="32" height="32" rx="8" fill="#eff6ff" stroke="none"/>
  <path d="M16 8h-3a2 2 0 0 0-2 2v2.18c0 .38.16.74.43 1.01l4.8 4.8a1 1 0 0 1 0 1.42l-2.4 2.4a3 3 0 0 1-4.24-4.24l.6-.6" stroke="#3b82f6"/>
  <path d="M22 22l-6-6" stroke="#3b82f6"/>
  <circle cx="24" cy="24" r="3" fill="#22c55e" stroke="none"/>
</svg>
